<?xml version="1.0" encoding="utf-8"?>
<!-- Generator: Adobe Illustrator 16.0.0, SVG Export Plug-In . SVG Version: 6.00 Build 0)  -->
<!DOCTYPE svg PUBLIC "-//W3C//DTD SVG 1.1//EN" "http://www.w3.org/Graphics/SVG/1.1/DTD/svg11.dtd">
<svg version="1.1" id="Capa_1" xmlns="http://www.w3.org/2000/svg" xmlns:xlink="http://www.w3.org/1999/xlink" x="0px" y="0px"
	 width="512px" height="512px" viewBox="0 0 512 512" enable-background="new 0 0 512 512" xml:space="preserve">
<g>
	<g>
		<g>
			<path fill="#0A4998" d="M209.507,448.517c-4.417,0-8.017-3.583-8.017-8s3.583-8,8.017-8h93c4.417,0,8,3.583,8,8s-3.583,8-8,8
				H209.507z"/>
			<path fill="#0A4998" d="M219.841,480.267c-4.417,0-8-3.584-8-8c0-4.417,3.6-8,8-8h72.333c4.417,0,8,3.583,8,8
				c0,4.416-3.583,8-8,8H219.841z"/>
			<path fill="#0A4998" d="M248.474,369.666c0,4.4-3.566,7.967-7.966,7.967s-7.966-3.566-7.966-7.967
				c-0.034-33.683-1-58.85-5.65-82.149c-4.6-23.033-12.833-44.383-27.45-70.717c-2.133-3.85-0.75-8.7,3.083-10.833
				c3.851-2.133,8.7-0.75,10.851,3.083c15.516,27.967,24.3,50.733,29.199,75.351C247.424,308.7,248.441,334.801,248.474,369.666z"/>
			<path fill="#0A4998" d="M279.475,369.666c0,4.4-3.567,7.967-7.967,7.967c-4.398,0-7.967-3.566-7.967-7.967
				c0.035-34.867,1.051-60.949,5.9-85.266c4.9-24.617,13.684-47.382,29.2-75.351c2.134-3.85,7-5.233,10.834-3.083
				c3.851,2.133,5.216,7,3.084,10.833c-14.617,26.333-22.851,47.7-27.45,70.717C280.475,310.816,279.492,335.984,279.475,369.666z"
				/>
			<path fill="#0A4998" d="M203.975,220.517c-4.2-1.333-6.5-5.833-5.167-10.034c1.35-4.2,5.833-6.5,10.034-5.167
				c5.566,1.801,10.383,4.217,14.833,6.451l0.433,0.233c6.95,3.5,12.733,6.233,17.033,2.733l9.833-8.017
				c3.417-2.766,8.451-2.25,11.217,1.167c2.767,3.417,2.25,8.45-1.167,11.217l-9.833,8.017c-12.25,9.967-22.267,5.117-34.333-0.934
				l-0.367-0.167C212.591,224.05,208.357,221.933,203.975,220.517z"/>
			<path fill="#0A4998" d="M264.008,39c0,4.417-3.583,8-8,8c-4.417,0-8-3.583-8-8V8c0-4.417,3.583-8,8-8c4.418,0,8,3.583,8,8V39z"/>
			<path fill="#0A4998" d="M303.175,205.316c4.2-1.35,8.7,0.967,10.034,5.167c1.35,4.2-0.967,8.7-5.167,10.034
				c-4.382,1.417-8.616,3.55-12.533,5.517l-0.366,0.167c-12.051,6.049-22.083,10.917-34.333,0.933l-9.833-8.016
				c-3.417-2.767-3.934-7.8-1.167-11.217s7.8-3.933,11.218-1.167l9.833,8.017c4.3,3.5,10.066,0.75,17.034-2.733l0.434-0.233
				C292.791,209.533,297.607,207.117,303.175,205.316z"/>
			<path fill="#0A4998" d="M356.658,124.35c25.75,25.75,41.7,61.35,41.7,100.65c0,15.367-2.466,30.216-7,44.135
				c-4.683,14.383-11.633,27.799-20.383,39.767c-14.683,20.083-26.6,33.267-35.85,43.516c-16.65,18.417-23.95,26.484-23.95,53.417
				c0,4.417-3.583,8-8,8h-0.201h-46.617h-46.833c-4.417,0-8.017-3.583-8.017-8c0-26.666-7.45-34.816-23.983-52.934l-0.017-0.016
				l-0.017,0.016c-9.35-10.232-21.383-23.417-36.433-44c-8.75-11.967-15.7-25.4-20.383-39.783c-4.534-13.9-7-28.767-7-44.117
				c0-19.233,3.851-37.633,10.817-54.434l0.15-0.316c7.233-17.334,17.767-32.934,30.75-45.9
				c13.067-13.066,28.75-23.633,46.217-30.867v-0.017c16.8-6.966,35.2-10.817,54.434-10.817c19.201,0,37.583,3.851,54.4,10.817
				C327.875,100.7,343.592,111.284,356.658,124.35L356.658,124.35z M382.342,225c0-34.883-14.151-66.466-37-89.333
				c-11.682-11.684-25.6-21.083-41-27.45c-14.833-6.15-31.166-9.55-48.334-9.55c-17.15,0-33.483,3.4-48.3,9.55V108.2l-0.034,0.016
				c-15.4,6.367-29.3,15.767-40.983,27.45c-11.566,11.566-20.917,25.367-27.3,40.6l-0.167,0.433c-6.133,14.816-9.55,31.15-9.55,48.3
				c0,13.7,2.183,26.9,6.184,39.182c4.183,12.783,10.333,24.685,18.066,35.284c14.451,19.767,26.217,32.65,35.367,42.683
				l-0.017,0.016c17.8,19.451,26.65,29.184,28.033,55.684h39.017h39.017c1.366-26.683,10.05-36.316,27.933-56.083
				c8.934-9.884,20.417-22.6,34.801-42.267c7.732-10.583,13.883-22.483,18.05-35.267C380.158,251.9,382.342,238.717,382.342,225z"/>
			<path fill="#0A4998" d="M230.174,512c-4.417,0-8-3.583-8-8s3.583-8,8-8h51.667c4.416,0,8,3.583,8,8s-3.584,8-8,8H230.174z"/>
			<path fill="#0A4998" d="M354.158,67.417c-2.184,3.8-7.067,5.117-10.884,2.934c-3.8-2.183-5.116-7.066-2.933-10.883l15.5-26.85
				c2.184-3.8,7.067-5.117,10.884-2.934s5.116,7.066,2.934,10.883L354.158,67.417z"/>
			<path fill="#0A4998" d="M171.658,59.483c2.183,3.8,0.884,8.683-2.934,10.867c-3.8,2.183-8.684,0.866-10.867-2.934l-15.5-26.85
				c-2.183-3.8-0.867-8.684,2.934-10.867c3.817-2.183,8.7-0.867,10.883,2.933L171.658,59.483z"/>
			<path fill="#0A4998" d="M101.941,123.333c3.8,2.183,5.117,7.066,2.934,10.883c-2.183,3.8-7.067,5.117-10.867,2.934l-26.851-15.5
				c-3.816-2.183-5.133-7.067-2.95-10.867c2.183-3.816,7.066-5.117,10.883-2.934L101.941,123.333z"/>
			<path fill="#0A4998" d="M418.008,137.15c-3.816,2.183-8.7,0.867-10.883-2.934c-2.184-3.817-0.867-8.7,2.933-10.883l26.851-15.5
				c3.815-2.183,8.698-0.867,10.883,2.934c2.184,3.8,0.867,8.7-2.934,10.883L418.008,137.15z"/>
			<path fill="#0A4998" d="M172.891,256.617c1.7,4.05-0.2,8.732-4.25,10.433c-4.05,1.7-8.733-0.2-10.433-4.249
				c-2.717-6.433-4.833-13.216-6.234-20.216c-1.383-6.917-2.133-13.983-2.133-21.083c0-4.417,3.6-8,8-8c4.417,0,8,3.6,8,8
				c0,6.25,0.617,12.267,1.767,17.966C168.792,245.4,170.591,251.167,172.891,256.617L172.891,256.617z M172.891,186.367
				c-1.7,4.05-6.383,5.95-10.433,4.25c-4.05-1.7-5.95-6.384-4.25-10.434c2.683-6.35,5.966-12.367,9.716-17.95l0.017-0.017
				l-0.017-0.016c3.851-5.7,8.217-11,13-15.784c4.733-4.733,10.034-9.1,15.799-12.983v-0.017c5.534-3.733,11.583-7.017,17.983-9.717
				c6.417-2.717,13.184-4.833,20.2-6.234c6.917-1.4,14.017-2.133,21.1-2.133c4.418,0,8,3.583,8,8c0,4.417-3.584,8-8,8
				c-6.267,0-12.3,0.617-17.983,1.75c-5.95,1.184-11.701,3-17.133,5.3c-5.283,2.233-10.384,5.017-15.233,8.283l0,0h-0.017
				c-4.717,3.167-9.217,6.9-13.383,11.067c-4.117,4.117-7.85,8.633-11.067,13.417l-0.017-0.017
				C177.924,175.95,175.141,181.05,172.891,186.367z"/>
		</g>
	</g>
</g>
</svg>
