<?xml version="1.0" encoding="utf-8"?>
<!-- Generator: Adobe Illustrator 16.0.0, SVG Export Plug-In . SVG Version: 6.00 Build 0)  -->
<!DOCTYPE svg PUBLIC "-//W3C//DTD SVG 1.1//EN" "http://www.w3.org/Graphics/SVG/1.1/DTD/svg11.dtd">
<svg version="1.1" id="Capa_1" xmlns="http://www.w3.org/2000/svg" xmlns:xlink="http://www.w3.org/1999/xlink" x="0px" y="0px"
	 width="512px" height="512px" viewBox="0 0 512 512" enable-background="new 0 0 512 512" xml:space="preserve">
<g>
	<g>
		<path fill="#0A4998" d="M278.399,0c-29.951,0-58.221,6.726-83.548,18.706c-66.838,31.002-113.079,98.576-113.079,177.08l0,0
			v26.168v6.305l-39.83,76.087c-10.089,19.231-0.526,34.891,21.123,34.891h18.707v0.42v33.104v38.779
			c0,22.595,18.496,41.091,41.091,41.091l56.434-8.407l0.105,56.434v0.421l0,0c0.315,7.251,6.411,11.98,13.978,10.719
			l203.352-35.941c7.672-1.366,13.978-8.827,13.978-16.604v-8.933v-7.251v-103.41c38.988-35.731,63.37-87.121,63.37-144.081
			C473.975,87.542,386.434,0,278.399,0z M378.236,296.988c-46.976,46.977-118.648,54.438-173.401,22.175l-0.315-0.21
			c-21.544,16.289-44.664,19.127-60.743,16.604c-5.36-0.841-6.516-8.093-1.576-10.509c14.712-7.252,24.066-21.649,29.425-33.314
			l-1.471-1.156c-49.708-56.119-47.711-141.979,5.99-195.681c55.804-55.803,146.288-55.803,202.091,0
			C434.04,150.701,434.04,241.185,378.236,296.988z"/>
		<path fill="#0A4998" d="M304.356,187.063c-7.776-4.309-15.974-7.566-24.171-10.929c-4.729-1.997-9.248-4.309-13.241-7.462
			c-7.882-6.305-6.411-16.499,2.837-20.493c2.628-1.156,5.36-1.471,8.093-1.682c10.72-0.63,20.808,1.366,30.477,6.095
			c4.834,2.312,6.41,1.577,7.986-3.363c1.682-5.254,3.153-10.719,4.729-16.079c1.051-3.573-0.21-5.99-3.678-7.461
			c-6.201-2.732-12.611-4.729-19.232-5.78c-8.723-1.366-8.723-1.366-8.723-10.194c0.105-12.401,0.105-12.401-12.295-12.401
			c-1.787,0-3.574,0-5.36,0c-5.78,0.21-6.831,1.156-6.937,7.041c-0.104,2.627,0,5.254,0,7.882c0,7.777-0.104,7.672-7.461,10.299
			c-17.971,6.516-29.11,18.812-30.266,38.359c-1.051,17.34,7.987,29.11,22.279,37.623c8.828,5.254,18.497,8.407,27.745,12.506
			c3.678,1.577,7.041,3.468,10.088,5.99c8.934,7.356,7.252,19.652-3.258,24.276c-5.675,2.522-11.665,3.153-17.865,2.312
			c-9.563-1.156-18.601-3.678-27.219-8.092c-5.044-2.627-6.516-1.892-8.197,3.468c-1.471,4.729-2.732,9.458-4.099,14.187
			c-1.786,6.411-1.156,7.882,4.939,10.825c7.777,3.783,16.079,5.675,24.486,7.041c6.621,1.051,6.831,1.366,6.937,8.197
			c0,3.152,0,6.2,0.104,9.354c0,3.888,1.892,6.2,5.99,6.305c4.624,0.105,9.144,0.105,13.767,0c3.783-0.104,5.676-2.102,5.676-5.885
			c0-4.309,0.21-8.513,0-12.821c-0.211-4.309,1.682-6.516,5.885-7.672c9.563-2.627,17.761-7.776,24.066-15.448
			C335.779,231.832,329.158,200.725,304.356,187.063z"/>
	</g>
</g>
</svg>
