<?xml version="1.0" encoding="utf-8"?>
<!-- Generator: Adobe Illustrator 16.0.0, SVG Export Plug-In . SVG Version: 6.00 Build 0)  -->
<!DOCTYPE svg PUBLIC "-//W3C//DTD SVG 1.1//EN" "http://www.w3.org/Graphics/SVG/1.1/DTD/svg11.dtd">
<svg version="1.1" id="Layer_1" xmlns="http://www.w3.org/2000/svg" xmlns:xlink="http://www.w3.org/1999/xlink" x="0px" y="0px"
	 width="612px" height="1008px" viewBox="0 0 612 1008" enable-background="new 0 0 612 1008" xml:space="preserve">
<g>
	<g>
		<path fill="#0A4998" d="M99.902,397.924H19.981C8.994,397.924,0,406.872,0,417.903v359.647c0,11.026,8.954,19.978,19.981,19.978
			h79.921c11.027,0,19.981-8.952,19.981-19.978V417.903C119.883,406.872,110.888,397.924,99.902,397.924z"/>
	</g>
</g>
<g>
	<g>
		<path fill="#0A4998" d="M562.116,397.924c-3.218-0.545-153.884,0-153.884,0l21.045-57.414
			c14.521-39.653,5.119-100.2-35.171-121.725c-13.119-7.009-31.448-10.529-46.226-6.81c-8.475,2.132-15.923,7.743-20.362,15.261
			c-5.105,8.646-4.578,18.738-6.396,28.324c-4.61,24.315-16.1,47.434-33.892,64.786c-31.021,30.254-127.386,117.536-127.386,117.536
			V757.57h333.006c44.935,0.026,74.383-50.153,52.22-89.349c26.418-16.92,35.453-52.559,19.981-79.922
			c26.419-16.919,35.453-52.558,19.98-79.921C630.614,479.186,615.376,406.932,562.116,397.924z"/>
	</g>
</g>
</svg>
